<?xml version="1.0" standalone="no"?>
<!DOCTYPE svg PUBLIC "-//W3C//DTD SVG 20010904//EN"
 "http://www.w3.org/TR/2001/REC-SVG-20010904/DTD/svg10.dtd">
<svg version="1.0" xmlns="http://www.w3.org/2000/svg"
 width="1024.000000pt" height="1024.000000pt" viewBox="0 0 1024.000000 1024.000000"
 preserveAspectRatio="xMidYMid meet">

<g transform="translate(0.000000,1024.000000) scale(0.100000,-0.100000)"
fill="#000000" stroke="none">
<path d="M5050 8587 c-19 -13 -102 -43 -185 -67 -220 -63 -589 -186 -840 -280
-121 -46 -276 -102 -345 -125 -69 -24 -151 -55 -184 -69 -32 -14 -63 -26 -68
-26 -6 0 -45 -16 -88 -35 -43 -19 -91 -35 -108 -35 -39 0 -88 -41 -97 -80 -10
-47 -106 -201 -450 -720 -111 -168 -229 -350 -262 -405 -33 -55 -98 -155 -144
-223 -46 -68 -97 -143 -114 -168 -16 -25 -68 -102 -114 -172 -47 -70 -119
-183 -161 -251 -61 -102 -82 -128 -115 -145 -44 -23 -66 -66 -49 -94 6 -9 58
-49 115 -88 57 -40 156 -110 220 -158 l117 -85 4 -48 c3 -26 6 -349 6 -718 3
-886 -8 -991 -74 -705 -14 63 -36 158 -49 210 -13 52 -42 181 -66 285 -23 105
-54 240 -69 300 l-27 110 -47 -1 c-25 0 -50 -4 -55 -10 -6 -5 11 -95 44 -229
29 -121 79 -332 110 -468 31 -137 65 -275 76 -307 28 -85 47 -183 55 -283 8
-104 24 -133 100 -186 29 -20 105 -83 169 -141 320 -288 551 -471 838 -664
100 -68 147 -106 147 -118 0 -10 7 -34 14 -53 14 -33 17 -35 65 -35 49 0 106
-20 271 -97 30 -14 78 -33 105 -43 95 -33 536 -211 671 -270 160 -71 250 -106
404 -156 96 -31 120 -43 146 -73 27 -31 38 -36 76 -36 32 0 54 7 79 26 40 30
89 48 223 84 133 35 303 100 461 175 202 96 698 346 788 397 51 29 85 42 92
37 91 -69 133 -84 159 -59 25 26 20 69 -13 104 l-29 31 31 24 c18 13 100 63
182 111 177 104 551 337 614 383 33 24 55 32 87 32 35 0 47 5 67 30 14 16 30
51 36 78 5 26 41 104 78 173 37 69 112 218 167 330 78 162 105 210 130 226 17
11 60 39 96 61 108 67 120 79 120 118 0 42 -15 74 -35 74 -7 0 -28 -12 -45
-26 -17 -15 -33 -24 -36 -22 -4 5 92 249 123 313 8 17 35 49 59 71 54 51 56
79 13 129 -49 56 -87 79 -104 65 -12 -10 -21 -8 -47 8 -105 63 -339 210 -440
275 l-118 77 0 80 c0 44 3 80 8 79 4 0 27 -14 52 -29 25 -16 58 -37 74 -46 17
-9 77 -48 135 -87 215 -142 360 -228 395 -234 43 -7 86 17 86 48 0 29 -38 63
-95 84 -28 10 -90 46 -140 80 -49 34 -175 113 -280 175 -104 62 -200 119 -212
127 -15 9 -23 23 -23 42 0 25 8 34 53 59 30 17 159 99 288 184 129 85 239 157
246 161 9 6 11 -22 10 -112 -1 -72 2 -124 8 -130 7 -7 28 -8 55 -3 l45 8 6
139 c4 98 11 153 23 184 21 55 14 87 -25 109 -24 14 -50 58 -136 232 -58 118
-172 350 -253 515 -191 387 -326 673 -357 755 -13 36 -33 73 -45 83 -30 25
-81 22 -116 -8 l-30 -25 -119 56 c-65 31 -172 80 -238 110 -66 30 -176 86
-245 124 -69 38 -168 87 -220 110 -156 68 -180 80 -180 88 0 4 30 25 66 46 36
22 71 50 77 64 10 22 8 28 -21 53 -40 36 -53 36 -94 1 -49 -42 -138 -102 -153
-102 -16 0 -185 77 -185 85 0 3 31 25 69 49 84 54 96 80 55 113 -16 13 -36 23
-44 23 -8 -1 -57 -29 -109 -64 l-94 -63 -86 39 c-123 57 -123 56 -50 109 81
58 87 71 48 103 -17 14 -38 26 -47 26 -9 0 -54 -27 -100 -59 l-82 -60 -98 45
c-53 25 -101 50 -106 55 -6 5 1 21 20 40 l29 30 -37 35 c-21 19 -42 34 -46 34
-5 0 -30 -16 -56 -36 l-47 -36 -77 28 c-42 16 -128 54 -191 86 -62 32 -123 58
-135 58 -12 0 -37 -11 -56 -23z m231 -182 c62 -25 114 -46 116 -48 3 -4 -120
-93 -292 -209 -60 -41 -177 -121 -260 -178 -82 -57 -190 -131 -240 -165 -49
-33 -139 -95 -200 -137 -60 -41 -128 -85 -150 -96 -22 -11 -51 -32 -64 -46
-35 -37 -20 -61 75 -120 44 -27 108 -72 144 -101 36 -28 94 -68 130 -89 36
-22 97 -60 135 -86 39 -26 111 -70 160 -98 50 -27 129 -77 175 -110 47 -34
105 -73 130 -86 25 -14 101 -61 170 -104 69 -44 213 -134 320 -201 307 -192
345 -217 347 -232 2 -15 -91 -86 -107 -82 -5 2 -48 29 -97 61 -48 32 -150 96
-225 141 -76 45 -150 92 -165 104 -16 13 -91 63 -168 111 -77 49 -154 101
-172 115 -17 14 -82 58 -145 96 -137 85 -696 459 -793 531 -39 28 -104 73
-145 100 -88 56 -529 383 -548 406 -16 20 -10 24 47 33 50 8 288 90 374 128
32 15 100 40 150 56 51 16 140 50 199 74 101 43 337 122 543 182 50 14 99 29
110 32 17 5 18 4 6 -11 -29 -35 -385 -295 -626 -456 -201 -135 -285 -200 -285
-220 0 -17 66 -70 88 -70 6 0 41 25 77 56 69 58 252 191 509 370 223 156 269
189 406 296 69 54 133 98 142 98 9 0 67 -20 129 -45z m278 -124 c20 -11 64
-32 99 -47 34 -15 62 -30 62 -35 0 -19 -1181 -819 -1209 -819 -27 1 -146 75
-149 94 -5 26 22 51 148 135 63 42 167 112 230 156 63 43 176 120 250 170 140
95 348 238 460 318 36 25 67 46 69 47 2 0 20 -9 40 -19z m384 -185 c52 -24 98
-49 101 -54 6 -10 -223 -170 -865 -603 -160 -108 -303 -208 -318 -223 -15 -14
-34 -26 -42 -26 -7 0 -40 17 -71 38 -31 20 -70 45 -87 54 -17 9 -31 21 -31 26
0 5 150 109 333 231 357 239 651 440 787 538 47 34 88 62 91 63 4 0 49 -20
102 -44z m332 -161 c80 -37 96 -52 72 -69 -168 -114 -312 -214 -451 -312 -381
-268 -446 -313 -561 -389 -66 -43 -140 -96 -164 -117 -24 -21 -49 -38 -56 -38
-35 0 -186 102 -184 124 1 6 141 105 312 219 343 230 731 493 846 575 83 58
74 58 186 7z m378 -188 c83 -40 183 -86 220 -102 45 -19 64 -31 55 -37 -7 -4
-151 -8 -320 -8 l-307 0 -16 -30 c-18 -34 -19 -62 -4 -77 7 -7 143 -9 434 -6
l423 4 79 -27 c113 -39 268 -109 268 -121 0 -6 -28 -30 -62 -54 -34 -24 -110
-79 -170 -122 -59 -44 -184 -129 -278 -190 -93 -62 -226 -151 -295 -200 -303
-212 -566 -390 -581 -394 -9 -3 -54 20 -100 49 -46 30 -184 116 -307 192 -220
136 -404 256 -452 295 l-25 21 25 20 c14 11 78 57 144 103 65 45 155 108 200
140 330 235 887 615 904 616 7 1 81 -32 165 -72z m-3223 -28 c52 -34 133 -92
180 -128 47 -37 166 -122 265 -189 99 -68 246 -167 326 -222 l146 -100 6 -183
c6 -170 3 -232 -12 -225 -3 2 -64 63 -136 136 l-130 134 -10 116 c-10 113 -11
117 -36 126 -14 5 -37 6 -51 3 -20 -5 -27 -15 -32 -48 -4 -22 -10 -39 -14 -37
-17 7 -200 205 -515 556 -80 89 -104 122 -90 122 5 0 51 -28 103 -61z m-187
-54 l37 -35 0 -1084 c0 -597 -3 -1091 -6 -1100 -10 -25 -31 -19 -75 22 -23 20
-86 73 -140 117 -169 138 -298 253 -469 420 -91 88 -198 187 -237 219 -40 32
-73 65 -73 73 0 20 35 79 160 269 58 88 145 223 193 300 116 182 482 731 540
809 10 14 21 25 25 25 4 0 24 -16 45 -35z m238 -238 c150 -167 156 -176 139
-206 -11 -21 -12 -1514 -1 -1791 l6 -155 50 0 50 0 0 910 c0 501 4 918 9 928
11 23 19 22 36 -7 8 -14 48 -61 89 -106 l74 -82 2 -894 c1 -492 4 -896 7 -899
2 -3 27 -6 54 -7 l49 -3 5 827 c3 454 9 830 13 834 5 5 71 -57 148 -138 l140
-147 0 -673 0 -673 -103 -71 c-57 -38 -147 -102 -202 -142 -61 -45 -103 -69
-111 -64 -7 4 -75 59 -151 122 -75 63 -185 154 -243 201 -58 48 -115 97 -126
109 -20 22 -20 36 -20 1115 0 793 3 1091 11 1088 6 -2 40 -36 75 -76z m4186
-196 c18 -23 37 -59 43 -80 6 -24 10 -352 11 -917 2 -1003 12 -913 -94 -846
-34 21 -150 95 -257 164 -323 207 -491 313 -562 354 -77 45 -77 44 -18 132 41
60 181 278 375 582 174 271 372 569 412 618 19 24 40 41 47 39 6 -2 26 -23 43
-46z m-379 -190 c-4 -11 -152 -248 -288 -461 -52 -82 -151 -237 -219 -345 -68
-107 -129 -195 -137 -195 -12 0 -14 45 -14 264 0 145 -3 271 -6 279 -3 10 14
28 53 54 32 22 171 115 308 207 138 93 259 177 270 187 21 20 39 25 33 10z
m-2586 -201 c112 -73 273 -179 358 -235 85 -56 270 -176 410 -265 281 -180
299 -192 300 -201 0 -3 -42 -34 -92 -68 -51 -34 -174 -118 -273 -187 l-180
-124 -75 77 c-40 43 -162 168 -270 278 -107 110 -246 253 -308 317 l-112 116
0 217 c0 212 1 217 20 212 11 -3 111 -65 222 -137z m3169 87 c351 -721 490
-1012 505 -1056 l19 -53 -40 -35 c-62 -54 -505 -344 -516 -338 -11 7 -13 1535
-1 1535 4 0 18 -24 33 -53z m-1360 -784 c-2 -18 -7 -33 -12 -33 -17 0 -299
183 -299 194 1 14 22 29 177 127 l128 80 5 -168 c3 -92 3 -183 1 -200z m-1712
-113 c178 -182 321 -334 319 -339 -2 -5 -32 -29 -68 -53 -36 -24 -148 -104
-250 -178 -194 -139 -241 -172 -302 -209 l-38 -23 0 566 c0 311 4 566 8 566 5
0 154 -149 331 -330z m1339 173 c26 -15 99 -62 162 -103 63 -42 135 -89 160
-103 25 -15 56 -36 70 -46 l24 -19 -19 -37 c-11 -20 -29 -45 -41 -56 -21 -19
-21 -19 -109 36 -229 144 -404 261 -404 271 -1 8 95 84 107 84 2 0 24 -12 50
-27z m-3948 -373 c0 -181 -2 -330 -5 -330 -3 0 -49 33 -102 73 -54 39 -119 86
-145 102 -27 17 -48 36 -48 44 0 8 23 51 52 95 28 45 78 124 112 176 72 113
114 170 127 170 5 0 9 -137 9 -330z m316 93 c8 -13 12 -28 9 -33 -3 -5 -6
-145 -5 -310 0 -285 -1 -300 -17 -291 -10 6 -56 35 -103 64 l-85 54 -3 329
c-1 181 0 339 3 352 5 21 12 17 95 -59 50 -46 97 -93 106 -106z m3554 30 c91
-60 204 -133 253 -162 48 -29 87 -58 87 -64 0 -7 -50 -43 -112 -82 -61 -38
-211 -138 -332 -221 -122 -82 -227 -153 -234 -158 -8 -5 -80 61 -212 193 -110
111 -200 205 -200 209 0 10 129 107 280 211 58 39 143 98 190 131 47 33 92 58
100 57 8 -2 89 -53 180 -114z m715 -164 c72 -42 323 -198 610 -380 192 -121
195 -123 195 -134 0 -6 -25 -30 -56 -54 l-56 -44 -32 18 c-17 10 -134 86 -261
170 -126 83 -252 164 -280 180 -27 15 -103 62 -167 102 -132 83 -136 91 -91
156 32 45 34 45 138 -14z m-4057 -74 c80 -67 324 -267 475 -388 l87 -71 0
-244 c0 -279 9 -260 -95 -191 -33 22 -139 91 -235 154 -96 63 -210 138 -252
167 l-77 53 -1 293 c0 200 3 292 11 292 6 0 45 -29 87 -65z m3783 -1055 c-12
-40 -66 -110 -86 -110 -13 0 -304 295 -332 337 -13 19 -10 28 33 110 27 48 76
131 109 183 34 52 91 145 127 205 36 61 85 139 109 175 l44 65 3 -465 c2 -295
-1 -478 -7 -500z m-1248 908 c19 -24 76 -83 127 -133 50 -49 121 -123 157
-163 79 -87 84 -75 -90 -195 -66 -45 -174 -120 -242 -167 -67 -47 -170 -119
-230 -160 -59 -41 -172 -121 -251 -177 -79 -56 -163 -113 -187 -127 -82 -48
-77 -66 -77 288 0 173 -2 321 -5 329 -4 10 55 57 192 152 109 77 241 170 293
209 109 80 262 185 271 186 4 0 22 -19 42 -42z m1406 -17 c15 -11 53 -34 86
-52 135 -74 598 -369 610 -389 3 -5 -27 -31 -67 -58 -92 -61 -340 -229 -524
-355 -78 -53 -143 -94 -146 -92 -2 2 0 55 5 117 5 62 6 278 3 481 -3 202 -3
367 0 367 3 0 18 -9 33 -19z m-389 -68 c0 -14 -87 -165 -177 -306 -52 -82 -97
-155 -100 -163 -3 -8 -11 -14 -18 -14 -17 0 -175 171 -169 182 13 21 436 306
457 308 4 0 7 -3 7 -7z m-3777 -325 c25 -18 27 -24 27 -94 0 -41 -3 -74 -8
-74 -4 0 -23 26 -42 58 -18 31 -53 83 -77 116 -24 32 -43 63 -43 68 0 9 88
-36 143 -74z m5218 25 c10 -13 13 -38 9 -95 l-5 -77 -67 42 c-37 23 -70 48
-72 54 -5 13 90 93 110 93 6 0 17 -8 25 -17z m-4208 -105 c280 -227 355 -293
345 -306 -16 -18 -275 -192 -288 -192 -6 0 -46 24 -90 53 l-80 54 -3 236 c-2
131 1 237 5 237 5 0 55 -37 111 -82z m2299 -75 l107 -106 -21 -41 c-67 -132
-547 -892 -663 -1049 l-20 -27 -80 66 c-44 36 -137 114 -206 173 -122 103
-306 254 -338 277 -12 10 -13 15 -3 27 13 15 299 224 442 322 250 172 457 317
550 386 58 43 109 79 115 79 5 0 58 -48 117 -107z m-3361 -97 c71 -105 80
-123 74 -150 -4 -17 -9 -193 -12 -392 -5 -407 -7 -398 66 -392 l36 3 5 312 c4
172 9 315 12 318 7 7 35 -30 166 -215 45 -63 104 -145 131 -181 l50 -67 -27
-24 c-15 -14 -74 -58 -132 -98 -58 -40 -132 -96 -165 -125 -90 -77 -303 -215
-334 -215 -8 0 -11 189 -11 708 l1 707 29 -35 c17 -19 67 -88 111 -154z m220
138 c8 -10 120 -86 249 -172 360 -236 373 -246 391 -283 10 -19 15 -38 12 -42
-3 -5 -7 -41 -10 -80 -2 -48 -10 -80 -22 -97 -19 -27 -197 -150 -217 -150 -16
0 -111 126 -250 330 -65 96 -135 200 -156 231 -41 61 -44 80 -31 212 6 70 12
78 34 51z m4902 -68 c50 -35 109 -72 130 -82 l37 -18 0 -218 c0 -246 0 -245
-76 -228 -53 13 -716 13 -748 0 -21 -8 -26 -16 -26 -42 0 -63 -21 -60 427 -56
l410 3 7 -95 c3 -52 6 -207 7 -345 l0 -249 -125 -88 c-69 -48 -132 -88 -140
-88 -12 0 -186 176 -738 745 -64 67 -120 133 -123 148 -4 15 -3 44 2 64 8 34
22 46 153 136 80 53 271 183 425 287 154 105 281 190 282 190 2 0 45 -29 96
-64z m-3205 -197 c1 -123 0 -235 -3 -248 -6 -24 -7 -24 -48 16 -23 23 -80 71
-127 108 -47 38 -100 81 -119 98 -40 34 -53 18 104 130 55 39 116 83 135 99
19 15 39 27 45 25 6 -2 11 -87 13 -228z m1989 -337 c4 -17 -1 -30 -18 -47 -33
-31 -968 -651 -1002 -664 -16 -6 27 64 258 419 116 179 226 352 245 385 45 82
108 182 144 228 l29 39 169 -169 c93 -92 171 -179 175 -191z m1655 267 c229
-147 334 -213 369 -232 29 -16 31 -21 26 -55 -4 -20 -31 -84 -61 -142 -29 -58
-85 -166 -124 -241 -38 -74 -77 -147 -86 -161 -9 -14 -49 -43 -89 -64 -40 -20
-98 -55 -130 -76 -31 -21 -62 -36 -67 -33 -11 7 -14 1077 -3 1088 12 12 19 8
165 -84z m-3884 -149 c272 -229 253 -206 231 -296 -11 -41 -17 -48 -70 -75
-32 -16 -69 -29 -81 -29 -13 0 -88 42 -167 93 -79 50 -195 125 -257 165 -93
60 -113 77 -103 88 6 7 55 45 108 83 53 38 107 81 120 95 14 14 28 26 33 26 5
0 89 -67 186 -150z m-695 -30 c26 -16 47 -32 47 -34 0 -11 -72 -47 -84 -43
-13 5 -28 107 -15 107 3 0 26 -13 52 -30z m377 -255 c127 -85 256 -174 288
-198 69 -54 99 -70 117 -63 8 3 25 27 39 54 14 27 39 61 56 75 16 14 30 30 30
36 0 6 5 11 10 11 6 0 10 -4 10 -10 0 -17 80 19 104 47 l25 28 48 -46 c52 -49
189 -165 318 -269 44 -35 112 -93 150 -128 39 -35 87 -73 108 -84 20 -12 37
-28 37 -35 0 -26 -50 -112 -85 -146 -58 -56 -208 -147 -243 -147 -17 0 -34 5
-37 10 -4 6 -198 10 -549 10 l-543 0 -24 34 c-13 19 -41 55 -63 80 -68 81
-111 76 639 76 l665 0 12 25 c8 18 9 34 2 53 l-10 27 -730 -4 -730 -4 -39 54
c-21 30 -82 107 -134 172 -53 66 -106 133 -118 150 -30 42 -34 38 167 171 30
20 96 68 145 106 50 39 93 70 97 70 4 0 111 -70 238 -155z m2683 39 c22 -24
25 -36 31 -170 4 -79 4 -190 0 -248 -4 -57 -4 -115 0 -130 6 -24 11 -26 55
-26 45 0 49 2 54 28 3 15 3 83 0 152 -2 69 -1 152 4 184 l8 60 220 -229 c121
-126 284 -296 363 -378 79 -82 142 -155 140 -162 -3 -14 -521 -387 -758 -546
-104 -70 -149 -95 -160 -89 -8 5 -100 82 -205 171 -104 89 -235 198 -290 242
-55 43 -104 83 -109 87 -8 8 -2 20 129 245 46 77 105 183 133 235 137 260 302
551 330 583 20 23 27 22 55 -9z m-381 -316 c-154 -292 -313 -573 -352 -619
l-25 -29 -169 136 -169 137 24 19 c32 26 430 290 552 367 55 34 120 78 145 97
66 51 65 28 -6 -108z m-3017 -4 c20 -31 75 -104 121 -162 47 -57 83 -106 81
-109 -7 -6 -644 -3 -661 3 -24 9 -20 17 32 49 26 16 121 85 212 152 91 68 168
123 171 123 3 0 23 -25 44 -56z m4911 -406 c-87 -188 -136 -278 -151 -278 -13
0 -15 22 -15 130 l0 131 63 28 c34 16 77 41 96 55 19 14 38 26 42 26 4 0 -12
-42 -35 -92z m-4610 17 c12 -3 43 -36 73 -79 28 -42 56 -78 61 -81 36 -22 -34
-25 -612 -23 l-623 3 0 40 c0 38 2 41 81 95 l82 55 458 -3 c253 -1 469 -5 480
-7z m1960 -82 c33 -32 120 -105 192 -163 73 -57 132 -110 132 -118 0 -27 -92
-195 -287 -522 -60 -102 -138 -237 -172 -300 -35 -64 -85 -138 -112 -167 -27
-28 -49 -55 -49 -60 -2 -47 -21 -278 -26 -310 -3 -24 -11 -43 -18 -43 -11 0
-225 226 -409 430 l-85 95 51 7 c29 3 131 7 227 7 96 1 181 5 188 9 16 11 28
77 15 85 -6 4 -136 7 -289 8 l-279 1 -70 90 c-38 49 -71 93 -73 97 -5 16 143
21 397 15 303 -8 321 -5 321 56 0 31 -4 39 -22 44 -13 3 -191 6 -395 6 -226 0
-373 4 -373 9 0 6 57 51 127 100 l127 91 235 0 c130 0 253 3 274 6 35 6 37 8
37 45 0 57 -17 62 -184 55 -78 -4 -154 -3 -170 2 -29 8 -28 9 70 77 54 39 119
84 144 103 61 44 106 63 165 71 48 6 51 8 75 58 31 63 59 95 125 139 27 19 50
34 50 34 0 0 28 -26 61 -57z m2375 -174 c-2 -79 -4 -145 -6 -147 -4 -4 -160
159 -160 167 0 13 149 131 160 128 6 -3 9 -58 6 -148z m-3018 -48 c5 -5 -52
-48 -126 -97 l-134 -89 -260 5 -261 5 -43 53 c-59 72 -89 113 -89 123 0 8 774
18 865 11 22 -2 44 -7 48 -11z m2858 -97 c57 -64 105 -119 107 -124 8 -21
-441 -306 -837 -531 l-84 -48 -49 42 c-27 23 -65 55 -86 70 -48 37 -58 55 -40
73 8 8 77 58 155 112 231 159 457 321 592 424 69 53 129 96 132 97 3 1 53 -51
110 -115z m-3875 44 c54 -69 94 -128 94 -142 0 -5 -259 -6 -597 -3 l-597 6
-93 93 c-51 51 -93 96 -93 100 0 5 278 8 618 8 l619 0 49 -62z m2207 -170 c61
-51 171 -142 243 -203 72 -60 151 -126 175 -146 40 -33 43 -37 29 -54 -29 -36
-372 -283 -630 -455 -249 -166 -402 -271 -496 -342 -73 -54 -84 -52 -78 20 11
139 26 208 58 267 32 58 84 148 323 553 63 106 146 251 184 322 39 72 73 130
75 130 2 0 55 -41 117 -92z m-1635 -74 c12 -4 22 -10 22 -14 0 -12 -172 -110
-182 -104 -10 7 -88 111 -88 119 0 7 219 6 248 -1z m-355 -41 c39 -48 97 -138
97 -150 0 -6 -9 -15 -21 -18 -12 -4 -227 -6 -478 -4 -251 2 -461 0 -468 -4
-18 -11 -59 14 -139 86 -39 35 -85 74 -103 86 -17 12 -29 27 -25 32 3 6 213 8
561 5 l555 -6 21 -27z m-124 -288 c7 -7 -20 -31 -87 -74 -53 -35 -119 -82
-145 -104 -35 -28 -54 -37 -70 -33 -22 5 -170 107 -257 176 l-44 35 29 7 c48
11 563 4 574 -7z m365 -18 c85 -90 137 -160 124 -168 -7 -5 -115 -9 -239 -9
-201 0 -229 -2 -248 -17 -12 -10 -23 -28 -26 -40 -8 -45 9 -48 319 -48 185 0
297 -4 309 -11 9 -5 25 -24 35 -41 16 -30 187 -231 296 -350 27 -29 47 -55 44
-58 -8 -8 -234 75 -433 160 -99 42 -259 106 -355 142 -182 69 -369 148 -384
163 -5 5 7 16 30 27 21 10 73 45 114 78 260 207 346 243 414 172z m2391 -121
c66 -53 94 -84 95 -103 0 -12 -368 -198 -816 -411 -188 -90 -440 -189 -451
-178 -6 6 83 71 197 143 148 94 480 325 730 508 126 92 158 111 170 102 8 -7
42 -34 75 -61z"/>
<path d="M5905 7310 c-6 -10 -9 -99 -3 -105 9 -9 1231 -6 1241 4 16 16 21 90
6 95 -22 7 -1240 13 -1244 6z"/>
<path d="M5743 7033 c-182 -3 -183 -4 -199 -28 -14 -21 -14 -30 -4 -55 l12
-30 287 0 c157 -1 423 -2 591 -3 l305 -2 3 56 c3 52 1 57 -20 63 -22 5 -587 5
-975 -1z"/>
<path d="M6033 6768 c-29 -14 -47 -60 -39 -103 12 -64 85 -87 131 -40 41 40
29 121 -22 144 -29 13 -41 13 -70 -1z"/>
<path d="M2980 7067 c-78 -39 -57 -149 32 -164 32 -5 41 -1 68 25 16 17 30 40
30 52 0 33 -26 75 -55 88 -33 15 -44 15 -75 -1z"/>
<path d="M2950 6680 c-29 -29 -27 -94 5 -125 53 -54 155 -18 155 55 0 48 -47
90 -99 90 -28 0 -48 -7 -61 -20z"/>
<path d="M2650 6670 c-13 -25 1 -56 30 -65 20 -6 69 28 70 48 1 37 -82 51
-100 17z"/>
<path d="M2565 6418 c-51 -29 -61 -93 -20 -133 57 -58 151 -1 131 80 -11 42
-76 73 -111 53z"/>
<path d="M2959 6271 c-48 -48 -35 -110 28 -131 52 -19 123 27 123 78 0 35 -52
82 -90 82 -22 0 -41 -9 -61 -29z"/>
<path d="M2961 5914 c-42 -54 -16 -120 51 -131 32 -5 41 -1 68 25 37 37 38 61
4 101 -35 42 -92 44 -123 5z"/>
<path d="M7425 6613 c-67 -16 -86 -93 -36 -144 33 -32 56 -36 106 -15 60 25
73 85 29 130 -15 14 -32 26 -40 26 -7 0 -18 2 -26 4 -7 2 -22 1 -33 -1z"/>
<path d="M7280 6221 l-135 -6 -9 -27 c-6 -18 -6 -38 0 -55 9 -25 14 -28 57
-28 26 1 124 2 217 3 l170 2 0 49 c0 28 -3 52 -7 54 -16 10 -163 14 -293 8z"/>
<path d="M7153 5903 c-7 -2 -13 -22 -13 -44 0 -32 4 -40 23 -44 12 -3 108 -4
212 -3 l190 3 0 45 0 45 -200 2 c-110 1 -206 -1 -212 -4z"/>
<path d="M5027 6408 c-44 -26 -77 -87 -77 -142 0 -53 35 -123 73 -146 59 -36
148 -21 203 35 40 40 46 144 11 196 -52 77 -135 100 -210 57z m107 -104 c31
-30 9 -84 -34 -84 -11 0 -27 11 -36 25 -15 23 -15 27 0 50 19 29 47 32 70 9z"/>
<path d="M7978 6230 c-21 -13 -25 -79 -6 -98 15 -15 72 -16 99 -2 23 13 26 71
5 89 -20 17 -78 23 -98 11z"/>
<path d="M7986 5918 c-35 -50 -5 -111 62 -124 26 -5 36 -1 62 24 38 38 38 56
1 93 -38 38 -101 41 -125 7z"/>
<path d="M4646 5809 c-35 -28 -37 -95 -3 -127 56 -53 155 -5 143 68 -11 70
-86 102 -140 59z"/>
<path d="M5689 5741 c-41 -42 -41 -101 1 -143 28 -28 35 -30 85 -26 66 6 85
20 85 65 0 67 -56 133 -112 133 -19 0 -40 -10 -59 -29z"/>
<path d="M2965 5228 c-57 -49 -25 -132 51 -132 28 0 42 7 60 28 30 34 30 58 2
90 -34 38 -78 44 -113 14z"/>
<path d="M6284 4989 c-42 -83 47 -159 111 -94 52 51 20 125 -55 125 -34 0 -42
-4 -56 -31z"/>
<path d="M5019 5287 c-71 -47 -94 -166 -44 -226 51 -59 157 -66 208 -13 76 79
57 200 -37 243 -54 25 -86 24 -127 -4z m101 -101 c6 -8 10 -25 8 -38 -4 -32
-62 -39 -78 -9 -23 44 38 85 70 47z"/>
<path d="M4663 4900 c-45 -18 -58 -95 -23 -130 49 -49 130 -6 130 69 0 35 -4
43 -30 56 -33 17 -45 18 -77 5z"/>
<path d="M6810 5172 c-38 -38 -39 -72 -2 -112 36 -40 77 -47 120 -20 79 49 51
144 -47 157 -35 5 -44 2 -71 -25z"/>
<path d="M5440 4771 c-26 -50 7 -131 54 -131 66 0 93 87 40 129 -34 27 -80 27
-94 2z"/>
<path d="M5044 4386 c-48 -21 -74 -61 -74 -115 0 -51 24 -97 62 -117 32 -18
93 -17 129 1 35 18 69 70 69 104 0 41 -41 100 -85 121 -48 23 -59 24 -101 6z
m86 -120 c0 -21 -28 -46 -45 -40 -8 4 -15 17 -15 30 0 20 5 24 30 24 19 0 30
-5 30 -14z"/>
<path d="M2982 4557 c-32 -34 -28 -70 10 -102 25 -21 38 -25 62 -21 61 12 84
71 45 120 -27 35 -86 36 -117 3z"/>
<path d="M7118 4713 c-38 -4 -38 -5 -38 -49 l0 -44 270 0 270 0 0 50 0 50
-232 -2 c-128 -1 -250 -3 -270 -5z"/>
<path d="M7067 4163 c-4 -3 -7 -25 -7 -49 0 -29 5 -44 16 -48 25 -10 532 -7
538 3 3 5 3 30 0 55 l-7 46 -267 0 c-147 0 -270 -3 -273 -7z"/>
<path d="M7274 3866 c-3 -13 -4 -37 -2 -52 l3 -29 168 -3 167 -2 0 39 c0 73 6
71 -171 71 l-159 0 -6 -24z"/>
<path d="M5983 4488 c-35 -17 -48 -60 -29 -97 29 -55 83 -64 126 -21 30 30 26
73 -11 104 -33 28 -51 31 -86 14z"/>
<path d="M7917 4423 c-4 -3 -7 -24 -7 -45 0 -33 4 -40 27 -49 15 -5 49 -9 77
-7 44 3 50 6 59 31 6 19 6 37 -2 53 -10 22 -16 24 -79 24 -38 0 -72 -3 -75 -7z"/>
<path d="M4012 4484 c-15 -10 -22 -25 -22 -49 0 -84 117 -86 135 -3 6 26 3 35
-15 50 -27 22 -68 23 -98 2z"/>
<path d="M3611 4114 c-27 -22 -31 -32 -31 -74 0 -85 72 -125 150 -85 61 32 68
99 16 151 -43 43 -90 46 -135 8z"/>
<path d="M3308 4093 c-21 -5 -25 -62 -6 -81 31 -31 108 2 108 46 0 36 -42 51
-102 35z"/>
<path d="M4374 4005 c-20 -30 -22 -88 -5 -109 16 -19 71 -30 101 -21 29 9 53
66 41 99 -22 57 -107 77 -137 31z"/>
<path d="M3941 3994 c-26 -33 -27 -58 -1 -84 45 -45 107 -40 135 12 l20 37
-21 28 c-17 22 -30 29 -66 31 -40 3 -49 -1 -67 -24z"/>
<path d="M6305 3885 c-50 -49 -20 -125 50 -125 79 0 105 99 34 135 -39 21 -56
19 -84 -10z"/>
<path d="M6315 3555 c-52 -18 -109 -82 -125 -141 -26 -93 22 -198 108 -236 92
-41 214 -5 272 79 66 97 17 233 -105 289 -57 27 -93 29 -150 9z m139 -146 c34
-40 33 -64 -3 -100 -33 -32 -58 -36 -100 -14 -53 27 -58 95 -9 129 37 26 82
21 112 -15z"/>
<path d="M6809 3532 c-29 -26 -34 -37 -34 -75 0 -34 6 -52 24 -71 48 -51 136
-51 180 0 19 23 22 35 18 72 -7 62 -40 93 -105 100 -44 4 -53 1 -83 -26z"/>
<path d="M5235 3100 c-27 -29 -22 -80 10 -107 30 -27 55 -29 94 -8 48 24 55
72 16 110 -31 32 -93 34 -120 5z"/>
<path d="M5824 2775 c-83 -35 -54 -165 36 -165 75 0 113 92 60 144 -33 32 -59
38 -96 21z"/>
<path d="M5603 2516 c-25 -22 -26 -27 -18 -61 13 -51 55 -82 92 -69 57 20 65
112 12 139 -39 20 -53 19 -86 -9z"/>
<path d="M2152 7040 c-130 -79 -69 -300 77 -276 110 18 164 143 97 230 -48 64
-115 82 -174 46z m92 -102 c20 -28 20 -33 0 -53 -18 -18 -52 -12 -71 13 -17
21 -16 27 3 46 22 22 50 20 68 -6z"/>
<path d="M8157 5334 c-9 -10 12 -34 30 -34 19 0 12 34 -8 38 -8 1 -18 0 -22
-4z"/>
<path d="M1724 5296 c-22 -14 -54 -44 -70 -67 -24 -36 -29 -52 -29 -104 0 -74
26 -120 94 -165 39 -26 54 -30 113 -30 79 0 111 14 149 62 42 54 50 76 50 133
0 69 -29 127 -83 162 -33 23 -55 28 -112 31 -61 3 -77 0 -112 -22z m165 -112
c21 -18 31 -35 31 -54 0 -19 -10 -36 -31 -54 -84 -71 -195 23 -128 108 28 36
85 36 128 0z"/>
<path d="M8415 5287 c-44 -25 -85 -87 -85 -130 0 -74 64 -152 134 -162 159
-24 265 158 152 262 -59 55 -137 66 -201 30z m120 -101 c16 -12 18 -19 10 -43
-9 -23 -16 -28 -44 -28 -43 0 -60 23 -43 59 13 29 47 34 77 12z"/>
</g>
</svg>
